<?xml version="1.0" encoding="UTF-8"?>
<svg width="320px" height="439px" viewBox="0 0 320 439" version="1.1" xmlns="http://www.w3.org/2000/svg" xmlns:xlink="http://www.w3.org/1999/xlink">
    <!-- Generator: Sketch 62 (91390) - https://sketch.com -->
    <title>coffee-cup</title>
    <desc>Created with Sketch.</desc>
    <g id="Page-1" stroke="none" stroke-width="1" fill="none" fill-rule="evenodd">
        <g id="coffee-cup" fill="#000000" fill-rule="nonzero">
            <path d="M254.55,229.29 C276.57,231.4814 294.159,240.845 306.378,257.989 C324.796,283.844 325.687,324.157 300.4874,344.341 C290.2414,352.5441 275.9524,356.415 262.9014,360.122 C255.3467,362.2626 250.7564,363.3993 251.7844,372.524 C252.73752,380.9732 252.1594,389.598 252.49143,398.122 C252.80393,406.3876 248.08523,412.364 242.00343,415.931 C215.51543,431.454 186.10843,437.923 155.89843,438.298 C127.57843,438.64566 99.07043,437.49722 70.95743,434.2707 C49.70343,431.841 28.52743,426.048 10.61743,413.0597 C8.01193,411.1613 6.62913,406.1339 6.51973,402.4817 C4.64863,341.7437 3.11353,281.0117 1.38303,220.2717 C1.15256,212.01 -0.29277,203.7167 0.05103,195.4907 C0.18384,192.2485 2.92213,187.7134 5.76983,186.1821 C38.41083,168.6701 73.48483,160.6001 110.45983,161.3071 C142.10483,161.90476 173.52583,164.1743 204.29983,172.5411 C221.54583,177.2325 238.67883,181.7481 250.95983,195.8931 C253.39733,198.7056 255.39343,202.8189 255.59263,206.4321 C255.97935,213.7485 255.00669,221.1271 254.55353,229.2871 L254.55,229.29 Z M16,339.04 C15.88672,342.3447 15.67969,344.6611 15.76562,346.9697 C16.44921,364.9347 17.71482,382.8757 17.67582,400.8287 C17.652383,408.4107 20.51562,412.7667 27.01562,414.7667 C38.84362,418.4112 50.67162,423.212 62.82062,424.462 C90.14462,427.294 117.64062,429.2159 145.11762,429.6964 C173.84062,430.18859 201.69562,423.8058 227.69962,411.5404 C232.76212,409.1537 241.55862,408.3724 241.57462,398.7284 C241.629308,379.1664 242.19181,359.5954 242.64882,340.0404 C243.47304,305.0524 244.43002,270.0834 245.19572,235.1104 C245.35197,227.6065 244.92228,220.0984 244.78556,213.3524 C164.46956,239.9574 86.39556,245.3994 9.60556,200.3254 C11.24616,226.5954 12.82436,251.6734 14.44536,277.6344 C24.33596,278.8453 34.69936,280.111 45.10536,281.3805 C43.06626,291.1305 43.06626,291.1305 14.92136,288.1617 C14.80808,292.2281 14.71042,296.2828 14.60105,300.7127 C23.68305,301.5252 32.60505,302.326 42.32805,303.1893 C41.56633,306.162 41.28505,309.6229 40.54685,309.7284 C32.12885,310.9003 23.64085,311.5604 14.88285,312.3925 C14.98832,317.498 15.1016,322.9315 15.23051,329.1585 C20.41801,329.04522 25.19931,328.43975 29.80851,329.04522 C32.26161,329.38506 34.42961,331.83822 36.72261,333.34212 C34.30461,335.38512 32.15231,338.52962 29.39841,339.18982 C25.55071,340.11951 21.25001,339.201538 15.99641,339.04529 L16,339.04 Z M20.8438,198.16 C78.3708,235.457 182.3138,228.445 237.1438,202.7538 C164.6638,188.4378 93.7738,189.2188 20.8438,198.16 Z M23.9649,188.058 C57.4139,186.6088 92.3519,184.7533 127.3149,183.6674 C163.0099,182.558 198.4949,184.7299 235.1649,193.5072 C192.3409,165.6052 62.1549,163.4912 23.9649,188.058 Z M254.1549,276.628 C254.45178,290.78 254.73302,304.148 254.97912,317.526 C265.68612,318.05334 275.38512,310.6002 276.30312,301.124 C277.51792,288.569 269.26792,279.073 254.1549,276.628 L254.1549,276.628 Z" id="Shape"></path>
            <path d="M129.34,129.34 C123.5509,132.4767 117.703,129.98844 114.504,121.6447 C107.297,102.8397 105.9298,81.2107 124.3321,63.4997 C129.5274,58.4997 134.1602,52.4527 137.4691,46.0737 C141.5668,38.1714 139.3324,30.0817 135.2347,22.2807 C132.5355,17.144 130.7816,11.4287 129.3285,5.8007 C128.92616,4.2812 130.8871,0.7812 132.2582,0.5077 C134.102,0.11708 137.684,1.45301 138.2855,2.9491 C142.2933,12.9335 146.7464,22.9411 149.0665,33.3791 C152.1876,47.3521 144.4454,58.2311 134.4455,66.4411 C117.7505,80.1601 117.9885,97.5191 121.9965,115.8551 C122.98869,120.4293 126.5824,124.4449 129.3403,129.3391 L129.34,129.34 Z" id="Path"></path>
            <path d="M196.39,33.457 C203.3861,31.0039 206.48,33.832 208.16,40.7422 C211.6834,55.2732 207.73813,66.5082 195.836,75.7192 C175.367,91.5432 173.34,103.1762 186.1368,125.5202 C186.39461,125.96161 186.1993,126.6452 186.226644,127.8444 C178.867244,132.2741 174.925644,126.4616 173.101644,121.571 C167.082144,105.337 164.718844,88.571 182.972744,74.911 C200.339744,61.911 200.921744,57.72 196.390744,33.458 L196.39,33.457 Z" id="Path"></path>
            <path d="M62.1,133.84 C53.7914,137.3634 49.702,132.0939 47.014,127.4728 C40.0492,115.4998 35.362,98.1958 48.5023,82.8748 C54.2875,76.1326 60.2643,69.0078 58.6233,59.1908 C57.87721,54.7572 55.5139,50.6127 54.1702,46.2458 C53.43192,43.8317 53.25614,41.238 52.8304,38.7302 C55.7523,39.37473 60.0843,39.02317 61.3773,40.82 C69.3031,51.879 73.0373,63.277 64.5375,76.957 C62.8305,79.7109 60.6078,82.1445 58.6469,84.7422 C47.5649,99.4372 47.6859,113.6762 58.94377,128.3042 C60.01017,129.6948 60.70547,131.3628 62.09997,133.8394 L62.1,133.84 Z" id="Path"></path>
        </g>
    </g>
</svg>