<?xml version="1.0" encoding="UTF-8"?>
<svg width="123px" height="164px" viewBox="0 0 123 164" version="1.1" xmlns="http://www.w3.org/2000/svg" xmlns:xlink="http://www.w3.org/1999/xlink">
    <!-- Generator: Sketch 62 (91390) - https://sketch.com -->
    <title>macos</title>
    <desc>Created with Sketch.</desc>
    <g id="Page-1" stroke="none" stroke-width="1" fill="none" fill-rule="evenodd">
        <g id="macos" fill="#000000">
            <path d="M122.99,9.35 L122.99,8.33 C122.975078,7.58582033 122.904885,6.84377779 122.78,6.11 C122.656435,5.3794025 122.423841,4.67150678 122.09,4.01 C121.409155,2.67239257 120.319793,1.58653348 118.98,0.91 C118.313776,0.56845844 117.598609,0.332318178 116.86,0.21 C116.126403,0.0863598388 115.383937,0.022815453 114.64,0.02 C114.3,0.01 113.96,-4.54747351e-13 113.62,-4.54747351e-13 L10.376,-4.54747351e-13 C10.037,-4.54747351e-13 9.698,0.01 9.356,0.02 C8.6097758,0.0235806882 7.86504586,0.0871184924 7.129,0.21 C6.39309871,0.332961185 5.68066446,0.569089961 5.017,0.91 C4.35165804,1.24480927 3.74401571,1.68366207 3.217,2.21 C2.68422105,2.73379354 2.24159948,3.34197585 1.907,4.01 C1.56880328,4.67004242 1.33470403,5.3784119 1.213,6.11 C1.08844686,6.84363973 1.0215755,7.58591183 1.013,8.33 C1.001,8.67 1.001,9.01 0.995,9.35 L0.995,154.66 C1.001,155 1.001,155.33 1.013,155.68 C1.02157591,156.420773 1.08844912,157.159722 1.213,157.89 C1.33314943,158.625156 1.56730045,159.337056 1.907,160 C2.244276,160.663409 2.68665758,161.267885 3.217,161.79 C3.74134275,162.31947 4.34952532,162.758713 5.017,163.09 C5.68066446,163.43091 6.39309871,163.667039 7.129,163.79 C7.86541976,163.911225 8.60976462,163.978072 9.356,163.99 C9.698,163.99 10.037,164 10.376,164 L113.62,164 C113.96,164 114.3,163.99 114.64,163.99 C115.383957,163.978878 116.126034,163.912024 116.86,163.79 C117.598609,163.667682 118.313776,163.431542 118.98,163.09 C119.6489,162.761079 120.257455,162.321567 120.78,161.79 C121.309119,161.266829 121.751347,160.662562 122.09,160 C122.425358,159.335598 122.658004,158.624174 122.78,157.89 C122.904883,157.159584 122.975078,156.420865 122.99,155.68 L122.99,154.66 C123,154.25 123,153.85 123,153.44 L123,10.56 C123,10.15 123,9.75 122.99,9.35 L122.99,9.35 Z M116.664,149.011535 C116.664,149.386739 116.664,149.752564 116.654838,150.127768 C116.654838,150.465453 116.654838,150.774996 116.645676,151.09392 C116.634989,151.719406 116.579871,152.343266 116.480756,152.960563 C116.388768,153.531628 116.212682,154.0851 115.958509,154.602083 C115.444671,155.606481 114.641901,156.425068 113.65879,156.947111 C113.150617,157.207396 112.606974,157.387649 112.046239,157.481778 C111.434475,157.586702 110.815716,157.64315 110.195469,157.65062 C109.902278,157.66 109.599925,157.66 109.297571,157.66 L14.7085962,157.66 C14.4007454,157.66 14.1002245,157.66 13.7923737,157.65062 C13.1721857,157.641975 12.5535138,157.585535 11.9416043,157.481778 C11.3878087,157.387965 10.8513692,157.207641 10.3510421,156.947111 C9.85961624,156.691331 9.4099051,156.359079 9.01793845,155.962199 C8.62117793,155.563226 8.29066065,155.100651 8.03941285,154.592703 C7.78468464,154.082893 7.60969458,153.535309 7.52083094,152.969943 C7.41814484,152.343657 7.36300651,151.710167 7.35591089,151.07516 C7.34858111,150.850037 7.34583244,150.643675 7.344,150.427932 L7.344,150.127768 L7.344,13.8534714 L7.344,13.5720679 C7.344,13.3563253 7.344,13.1499628 7.35591089,12.9342202 C7.36258459,12.2993107 7.41680063,11.6658596 7.51808227,11.0394371 C7.60883177,10.4742925 7.7843764,9.926908 8.03849663,9.41667741 C8.5437221,8.39667178 9.35393002,7.56851062 10.3510421,7.05288867 C10.8512499,6.79525294 11.3860446,6.61506684 11.9379395,6.51822217 C12.5522735,6.41535258 13.1735498,6.36203469 13.7960386,6.35876023 L14.0113509,6.34938011 C14.2440714,6.34938011 14.4749595,6.34 14.7067638,6.34 L109.288409,6.34 C109.526627,6.34 109.764845,6.34938011 110.003063,6.34938011 L110.213794,6.35876023 C110.830796,6.36242787 111.446562,6.41574608 112.055401,6.51822217 C112.612188,6.61661676 113.152208,6.79669181 113.65879,7.05288867 C114.149772,7.3110257 114.598081,7.64654892 114.987313,8.04718076 C115.385013,8.44575679 115.716191,8.90839184 115.967671,9.41667741 C116.21482,9.92589908 116.387688,10.4694761 116.480756,11.030057 C116.579912,11.6599524 116.635025,12.2962904 116.645676,12.9342202 C116.654838,13.2250037 116.654838,13.5345475 116.654838,13.8534714 C116.664,14.2474362 116.664,14.6132606 116.664,14.9884652 L116.664,149.011535 Z M78.91,38.0499566 C78.0771893,38.052744 77.402744,38.7271893 77.4,39.56 L77.4,44.66 C77.402744,45.4928107 78.0771893,46.167256 78.91,46.1700059 C79.3089985,46.1711261 79.6916876,46.0117486 79.9719362,45.7277383 C80.2521847,45.443728 80.4064457,45.0589481 80.4,44.66 L80.4,39.56 C80.4083874,39.1604862 80.2547566,38.7745794 79.9740854,38.4901409 C79.6934143,38.2057023 79.3095901,38.0469399 78.91,38.0499566 L78.91,38.0499566 Z M44.71,46.1700003 C45.5428107,46.167256 46.217256,45.4928107 46.22,44.66 L46.22,39.56 C46.22,38.72605 45.54395,38.05 44.71,38.05 C43.87605,38.05 43.1999997,38.72605 43.1999997,39.56 L43.1999997,44.66 C43.1997345,45.0605582 43.358738,45.444787 43.6419755,45.7280245 C43.925213,46.011262 44.3094418,46.1702655 44.71,46.1700003 L44.71,46.1700003 Z M100.2,24.32 C100.2,24.15 100.2,23.98 100.19,23.81 C100.189849,23.4448172 100.159748,23.0802619 100.1,22.72 C100.034917,22.3580578 99.9169901,22.0076465 99.75,21.68 C99.5877778,21.3497269 99.3714605,21.0489107 99.11,20.79 C98.8483961,20.5317108 98.548124,20.3157847 98.22,20.15 C97.889642,19.9831626 97.535448,19.8684712 97.17,19.81 C96.8100022,19.7469939 96.4454526,19.713549 96.08,19.71 C95.91,19.71 95.74,19.7 95.57,19.7 L28.02,19.7 C27.86,19.7 27.69,19.71 27.52,19.71 C27.1512094,19.7130695 26.7832984,19.7465159 26.42,19.81 C26.0573857,19.8670044 25.7062604,19.9817954 25.38,20.15 C25.051876,20.3157847 24.7516039,20.5317108 24.49,20.79 C24.2286209,21.0512754 24.0093479,21.3515108 23.84,21.68 C23.6717954,22.0062604 23.5570044,22.3573857 23.5,22.72 C23.4369939,23.0799978 23.403549,23.4445474 23.4,23.81 C23.4,23.98 23.39,24.15 23.39,24.32 L23.39,87.04 C23.39,87.21 23.4,87.38 23.4,87.54 C23.4030695,87.9087906 23.4365159,88.2767016 23.5,88.64 C23.5570044,89.0026143 23.6717954,89.3537396 23.84,89.68 C24.0093479,90.0084892 24.2286209,90.3087246 24.49,90.57 C24.7516039,90.8282892 25.051876,91.0442153 25.38,91.21 C25.7062604,91.3782046 26.0573857,91.4929956 26.42,91.55 C26.7832984,91.6134841 27.1512094,91.6469305 27.52,91.65 C27.69,91.65 27.86,91.65 28.02,91.66 L95.57,91.66 C95.74,91.65 95.91,91.65 96.08,91.65 C96.4454526,91.646451 96.8100022,91.6130061 97.17,91.55 C97.535448,91.4915288 97.889642,91.3768374 98.22,91.21 C98.548124,91.0442153 98.8483961,90.8282892 99.11,90.57 C99.3714605,90.3110893 99.5877778,90.0102731 99.75,89.68 C99.9169901,89.3523535 100.034917,89.0019422 100.1,88.64 C100.160155,88.2764269 100.190257,87.908516 100.19,87.54 C100.2,87.38 100.2,87.21 100.2,87.04 L100.2,24.32 Z M28.62,90.3 L28.02,90.3 C27.87,90.29 27.72,90.29 27.55,90.29 C27.2517314,90.2859895 26.9542026,90.2592453 26.66,90.21 C26.4303757,90.1749284 26.2076709,90.1040678 26,90 C25.7951039,89.8991619 25.6090626,89.7638591 25.45,89.6 C25.2894211,89.4441923 25.1574205,89.2614221 25.06,89.06 C24.9525898,88.8528643 24.8783533,88.6301547 24.84,88.4 C24.795278,88.105234 24.7685618,87.8080164 24.76,87.51 L24.76,23.85 C24.7685618,23.5519836 24.795278,23.254766 24.84,22.96 C24.8783533,22.7298453 24.9525898,22.5071357 25.06,22.3 C25.2575842,21.8890749 25.5890749,21.5575842 26,21.36 C26.2089642,21.2569756 26.4310141,21.182959 26.66,21.14 C26.9544193,21.0937644 27.2519726,21.0703614 27.55,21.07 C27.71,21.06 27.87,21.06 28.03,21.06 L61.62,21.06 C59.0145225,26.8088838 57.2433124,32.900365 56.36,39.15 C55.3148855,45.5126371 54.6337779,51.9297392 54.32,58.37 C54.3,58.63 54.29,58.83 54.29,58.97 C54.1922951,59.8154482 54.4658797,60.6617367 55.04,61.29 C55.6480243,61.8969854 56.481497,62.2231268 57.34,62.19 L64.94,62.19 L65.2,62.18 C65.66,62.18 65.91,62.18 65.91,63.06 C65.91,66.65 66.05,70.32 66.3,74.02 C64.7867498,74.2009155 63.264026,74.2910768 61.74,74.29 C53.65,74.29 48.3,71.97 45.23,70.02 C43.3790358,68.9102227 41.7567182,67.4576036 40.45,65.74 C40.2294687,65.4088126 39.8578933,65.2098884 39.46,65.21 C39.2322947,65.2066732 39.0090035,65.2729628 38.82,65.4 C38.5539247,65.5664048 38.3663925,65.8332775 38.3,66.14 C38.2398941,66.4474892 38.3007929,66.7663122 38.47,67.03 C38.72,67.42 44.92,76.64 61.74,76.64 C63.3202024,76.6387205 64.8991778,76.551927 66.47,76.38 C66.47,76.43 66.48,76.47 66.48,76.52 C66.88,81.31 67.76,87.12 68.39,90.3 L28.62,90.3 Z M98.84,86.52 L98.84,87.03 C98.84,87.19 98.84,87.35 98.83,87.51 C98.8250275,87.8078256 98.8016496,88.1050591 98.76,88.4 C98.717041,88.6289859 98.6430244,88.8510358 98.54,89.06 C98.3269466,89.4597136 97.9997136,89.7869466 97.6,90 C97.3923291,90.1040678 97.1696243,90.1749284 96.94,90.21 C96.64244,90.2592722 96.3415855,90.2860148 96.04,90.29 C95.88,90.29 95.73,90.29 95.56,90.3 L70.8,90.3 C69.906707,85.6801634 69.2525031,81.0172917 68.84,76.33 C68.83,76.23 68.83,76.14 68.82,76.04 C80.37,73.99 84.94,67.37 85.16,67.04 C85.3982205,66.6765878 85.4178346,66.2117707 85.2110766,65.8295815 C85.0043185,65.4473924 84.604531,65.2094647 84.17,65.21 C83.7780079,65.2128611 83.4121244,65.4070034 83.19,65.73 C81.8506222,67.4495452 80.202479,68.9043876 78.33,70.02 C75.360464,71.8322972 72.076821,73.0704477 68.65,73.67 C68.41,70.09 68.28,66.53 68.28,63.06 C68.383452,62.2015323 68.0984311,61.3416807 67.5026809,60.7149824 C66.9069306,60.0882841 66.0626027,59.7601194 65.2,59.82 L65.01,59.82 L57.34,59.83 C57.133518,59.8503995 56.926819,59.793379 56.76,59.67 C56.651779,59.5047918 56.612312,59.3038689 56.65,59.11 C56.66,58.97 56.67,58.75 56.68,58.48 C56.9999607,52.1240163 57.6743424,45.7908383 58.7,39.51 C59.5855141,33.1101613 61.4577428,26.8862656 64.25,21.06 L95.56,21.06 C95.72,21.06 95.88,21.06 96.04,21.07 C96.3380423,21.0699841 96.635625,21.0933895 96.93,21.14 C97.1625702,21.1814514 97.3881274,21.2555149 97.6,21.36 C97.79991,21.4599359 97.9822798,21.5916475 98.14,21.75 C98.2968986,21.9112881 98.4314336,22.0929103 98.54,22.29 C98.6415479,22.5030606 98.7154789,22.7282141 98.76,22.96 C98.8016496,23.2549409 98.8250275,23.5521744 98.83,23.85 C98.84,24.01 98.84,24.17 98.84,24.32 L98.84,86.52 Z M54.38,143.4 L50.07,143.4 L50.07,121.18 L49.93,121.18 L40.79,143.17 L37.3,143.17 L28.14,121.18 L27.99,121.18 L27.99,143.4 L23.71,143.4 L23.71,113.2 L29.15,113.2 L38.96,137.04 L39.13,137.04 L48.92,113.2 L54.38,113.2 L54.38,143.4 Z M59.06,137.15 C59.06,133.28 62.02,131.06 67.48,130.72 L73.34,130.36 L73.34,128.69 C73.34,126.24 71.73,124.9 68.85,124.9 C66.47,124.9 64.75,126.12 64.4,127.98 L60.15,127.98 C60.28,124.06 63.97,121.22 68.97,121.22 C74.35,121.22 77.86,124.02 77.86,128.38 L77.86,143.4 L73.51,143.4 L73.51,139.78 L73.4,139.78 C71.9748605,142.242406 69.313819,143.724602 66.47,143.64 C62.1,143.64 59.06,141.04 59.06,137.15 L59.06,137.15 Z M73.34,135.2 L73.34,133.5 L68.11,133.84 C65.17,134.03 63.64,135.12 63.64,137.02 C63.64,138.86 65.23,140.06 67.74,140.06 C70.92,140.06 73.34,138.03 73.34,135.2 L73.34,135.2 Z M97.46,129.05 C97.059359,126.554086 94.8102144,124.783483 92.29,124.98 C88.83,124.98 86.52,127.9 86.52,132.44 C86.52,137.13 88.84,139.91 92.31,139.91 C95.1,139.91 96.95,138.53 97.48,135.98 L101.83,135.98 C101.35,140.62 97.63,143.68 92.29,143.68 C86.01,143.68 81.89,139.41 81.89,132.44 C81.89,125.64 86.01,121.22 92.25,121.22 C97.9,121.22 101.41,124.76 101.79,129.05 L97.46,129.05 Z" id="Shape"></path>
        </g>
    </g>
</svg>