<?xml version="1.0" encoding="UTF-8"?>
<!DOCTYPE svg PUBLIC "-//W3C//DTD SVG 1.1//EN" "http://www.w3.org/Graphics/SVG/1.1/DTD/svg11.dtd">
<svg version="1.1" xmlns="http://www.w3.org/2000/svg" xmlns:xlink="http://www.w3.org/1999/xlink" x="0" y="0" width="588" height="494" viewBox="0, 0, 588, 494">
  <g id="Layer_1">
    <path d="M0,325.849 L295.893,260.401 L516.989,342.899 L229.894,435.296 L0,325.849" fill="#746961"/>
    <path d="M295.893,260.401 L295.893,288.451 L0,364.347 L0,325.849 L295.893,260.401" fill="#90847C"/>
    <path d="M295.893,288.451 L516.989,381.399 L516.989,342.899 L295.893,260.401 L295.893,288.451" fill="#ACA099"/>
    <path d="M337.692,22.256 L295.893,260.401 L516.989,342.899 L587.386,29.405 L337.692,22.256" fill="#D1C6BD"/>
    <path d="M587.386,29.405 L553.292,39.305 L491.142,310.449 L516.989,342.899 L587.386,29.405" fill="#ACA099"/>
    <path d="M337.692,22.256 L328.344,1.356 L556.591,5.206 L587.386,29.405 L337.692,22.256" fill="#90847C"/>
    <path d="M337.692,22.256 L309.646,31.055 L269.75,239.189 L295.893,260.401 L337.692,22.256" fill="#ACA099"/>
    <path d="M261.794,291.397 C361.729,290.091 442.741,318.828 442.741,355.582 C442.741,392.334 361.729,423.188 261.794,424.494 C161.861,425.798 80.848,397.064 80.848,360.309 C80.848,323.557 161.861,292.704 261.794,291.397" fill="#F1BB39"/>
    <path d="M0,325.849 L0,364.347 L229.894,492.835 L229.894,435.296 L0,325.849" fill="#ACA099"/>
    <path d="M516.989,342.899 L516.989,381.399 L229.894,492.835 L229.894,435.296 L516.989,342.899" fill="#90847C"/>
    <path d="M261.794,299.479 C349.583,298.524 420.749,319.53 420.749,346.395 C420.749,373.26 349.583,395.814 261.794,396.767 C174.006,397.723 102.839,376.717 102.839,349.851 C102.839,322.986 174.006,300.433 261.794,299.479" fill="#F3D27E"/>
    <path d="M420.095,350.803 C412.825,375.684 344.733,395.866 261.794,396.767 C178.854,397.669 110.763,378.969 103.492,354.245 C110.76,329.362 178.852,309.18 261.794,308.279 C344.735,307.377 412.828,326.079 420.095,350.803" fill="#FBE29E"/>
    <path d="M300.992,366.276 C318.686,366.276 333.03,371.14 333.03,377.137 C333.03,383.137 318.686,388.002 300.992,388.002 C283.298,388.002 268.955,383.137 268.955,377.137 C268.955,371.14 283.298,366.276 300.992,366.276 z M379.639,341.526 C393.538,341.526 404.802,346.328 404.802,352.252 C404.802,358.174 393.538,362.976 379.639,362.976 C365.743,362.976 354.478,358.174 354.478,352.252 C354.478,346.328 365.743,341.526 379.639,341.526 z M299.617,319.252 C314.121,319.252 325.877,323.439 325.877,328.602 C325.877,333.765 314.121,337.951 299.617,337.951 C285.114,337.951 273.355,333.765 273.355,328.602 C273.355,323.439 285.114,319.252 299.617,319.252 z M223.856,317.052 C239.651,317.052 252.456,320.931 252.456,325.715 C252.456,330.498 239.651,334.377 223.856,334.377 C208.061,334.377 195.257,330.498 195.257,325.715 C195.257,320.931 208.061,317.052 223.856,317.052 z M155.794,344.002 C169.54,344.002 180.682,348.373 180.682,353.764 C180.682,359.156 169.54,363.526 155.794,363.526 C142.05,363.526 130.908,359.156 130.908,353.764 C130.908,348.373 142.05,344.002 155.794,344.002 z M231.967,350.327 C247.535,350.327 260.155,354.39 260.155,359.402 C260.155,364.412 247.535,368.476 231.967,368.476 C216.401,368.476 203.782,364.412 203.782,359.402 C203.782,354.39 216.401,350.327 231.967,350.327" fill="#B9372B"/>
    <path d="M308.967,346.891 C302.931,346.891 298.036,348.43 298.036,350.329 C298.036,352.227 302.931,353.766 308.967,353.766 C315.004,353.766 319.899,352.227 319.899,350.329 C319.899,348.43 315.004,346.891 308.967,346.891 z M308.967,345.103 C317.092,345.103 323.679,347.443 323.679,350.329 C323.679,353.214 317.092,355.553 308.967,355.553 C300.843,355.553 294.254,353.214 294.254,350.329 C294.254,347.443 300.843,345.103 308.967,345.103" fill="#171716"/>
    <path d="M348.5,328.559 C342.462,328.559 337.568,330.098 337.568,331.997 C337.568,333.895 342.462,335.434 348.5,335.434 C354.539,335.434 359.431,333.895 359.431,331.997 C359.431,330.098 354.539,328.559 348.5,328.559 z M348.5,326.771 C356.626,326.771 363.212,329.111 363.212,331.997 C363.212,334.882 356.626,337.221 348.5,337.221 C340.375,337.221 333.789,334.882 333.789,331.997 C333.789,329.111 340.375,326.771 348.5,326.771" fill="#171716"/>
    <path d="M195.957,342.341 C189.918,342.341 185.025,343.879 185.025,345.778 C185.025,347.678 189.918,349.216 195.957,349.216 C201.994,349.216 206.888,347.678 206.888,345.778 C206.888,343.879 201.994,342.341 195.957,342.341 z M195.957,340.554 C204.082,340.554 210.668,342.893 210.668,345.778 C210.668,348.665 204.082,351.003 195.957,351.003 C187.831,351.003 181.245,348.665 181.245,345.778 C181.245,342.893 187.831,340.554 195.957,340.554" fill="#171716"/>
    <path d="M190.425,373.646 C184.387,373.646 179.494,375.186 179.494,377.084 C179.494,378.982 184.387,380.521 190.425,380.521 C196.462,380.521 201.357,378.982 201.357,377.084 C201.357,375.186 196.462,373.646 190.425,373.646 z M190.425,371.86 C198.549,371.86 205.137,374.198 205.137,377.084 C205.137,379.97 198.549,382.308 190.425,382.308 C182.299,382.308 175.713,379.97 175.713,377.084 C175.713,374.198 182.299,371.86 190.425,371.86" fill="#171716"/>
    <path d="M243.069,380.776 C237.031,380.776 232.136,382.313 232.136,384.213 C232.136,386.111 237.031,387.65 243.069,387.65 C249.106,387.65 254,386.111 254,384.213 C254,382.313 249.106,380.776 243.069,380.776 z M243.069,378.987 C251.193,378.987 257.781,381.327 257.781,384.213 C257.781,387.099 251.193,389.437 243.069,389.437 C234.943,389.437 228.357,387.099 228.357,384.213 C228.357,381.327 234.943,378.987 243.069,378.987" fill="#171716"/>
    <path d="M355.235,368.272 C349.196,368.272 344.303,369.812 344.303,371.71 C344.303,373.609 349.196,375.147 355.235,375.147 C361.272,375.147 366.167,373.609 366.167,371.71 C366.167,369.812 361.272,368.272 355.235,368.272 z M355.235,366.485 C363.36,366.485 369.946,368.824 369.946,371.71 C369.946,374.595 363.36,376.933 355.235,376.933 C347.109,376.933 340.522,374.595 340.522,371.71 C340.522,368.824 347.109,366.485 355.235,366.485" fill="#171716"/>
    <path d="M237.557,335.687 C245.355,333.885 254.637,333.763 263.002,335.751 C271.37,337.737 277.046,341.412 279.18,345.572 C271.382,347.374 262.1,347.496 253.735,345.508 C245.368,343.522 239.692,339.848 237.557,335.687" fill="#9FB93B"/>
    <path d="M315.105,345.586 C322.904,343.786 332.184,343.664 340.551,345.65 C348.917,347.636 354.594,351.311 356.728,355.472 C348.931,357.273 339.649,357.395 331.283,355.409 C322.917,353.421 317.241,349.748 315.105,345.586" fill="#9FB93B"/>
    <path d="M132.234,370.341 C140.033,368.541 149.314,368.419 157.681,370.406 C166.047,372.393 171.723,376.067 173.858,380.228 C166.06,382.029 156.778,382.151 148.412,380.164 C140.045,378.176 134.369,374.502 132.234,370.341" fill="#9FB93B"/>
    <path d="M191.458,327.993 C183.66,326.191 174.378,326.07 166.011,328.057 C157.645,330.044 151.969,333.717 149.834,337.877 C157.632,339.679 166.915,339.801 175.281,337.814 C183.647,335.828 189.323,332.153 191.458,327.993" fill="#9FB93B"/>
    <path d="M298.706,360.168 C290.907,358.366 281.625,358.245 273.259,360.231 C264.893,362.218 259.217,365.891 257.083,370.051 C264.88,371.854 274.162,371.974 282.528,369.989 C290.896,368.002 296.572,364.328 298.706,360.168" fill="#9FB93B"/>
  </g>
</svg>